<svg width="80" height="80" viewBox="0 0 80 80" fill="none" xmlns="http://www.w3.org/2000/svg">
<path d="M79.9998 44.1121V35.7051H71.3262C70.5823 30.1473 68.3929 25.0525 65.1508 20.7999L71.2841 14.6666L65.3473 8.7298L59.2139 14.8631C54.9613 11.621 49.8666 9.43155 44.3087 8.68769V0H35.9017V8.67366C30.3439 9.41751 25.2491 11.607 20.9965 14.8491L14.8632 8.71576L8.92639 14.6526L15.0597 20.7859C11.8176 25.0385 9.62814 30.1332 8.88428 35.6911H0.182556V44.0981H8.85621C9.60007 49.656 11.7895 54.7507 15.0316 59.0033L8.89832 65.1366L14.8351 71.0735L20.9685 64.9401C25.2211 68.1822 30.3158 70.3717 35.8737 71.1156V79.7892H44.2807V71.1156C49.8385 70.3717 54.9333 68.1822 59.1859 64.9401L65.3192 71.0735L71.256 65.1366L65.1227 59.0033C68.3648 54.7507 70.5543 49.656 71.2981 44.0981H79.9998V44.1121ZM17.0106 39.9016C17.0106 33.7402 19.4106 27.9438 23.7755 23.5789C28.1404 19.214 33.9368 16.814 40.0982 16.814C46.2596 16.814 52.0561 19.214 56.421 23.5789C60.7859 27.9438 63.1859 33.7402 63.1859 39.9016C63.1859 46.063 60.7718 51.8735 56.421 56.2244C52.0561 60.5893 46.2596 62.9893 40.0982 62.9893C33.9368 62.9893 28.1404 60.5893 23.7755 56.2244C19.4106 51.8735 17.0106 46.077 17.0106 39.9016Z" fill="#24396E"/>
<path d="M39.9999 59.9999C51.0456 59.9999 59.9999 51.0456 59.9999 39.9999C59.9999 28.9543 51.0456 20 39.9999 20C28.9543 20 20 28.9543 20 39.9999C20 51.0456 28.9543 59.9999 39.9999 59.9999Z" fill="white"/>
<path d="M79.9998 44.1121V35.7051H71.3262C70.5823 30.1473 68.3929 25.0525 65.1508 20.7999L71.2841 14.6666L65.3473 8.7298L59.2139 14.8631C54.9613 11.621 49.8666 9.43155 44.3087 8.68769V0H35.9017V8.67366C30.3439 9.41751 25.2491 11.607 20.9965 14.8491L14.8632 8.71576L8.92639 14.6526L15.0597 20.7859C11.8176 25.0385 9.62814 30.1332 8.88428 35.6911H0.182556V44.0981H8.85621C9.60007 49.656 11.7895 54.7507 15.0316 59.0033L8.89832 65.1366L14.8351 71.0735L20.9685 64.9401C25.2211 68.1822 30.3158 70.3717 35.8737 71.1156V79.7892H44.2807V71.1156C49.8385 70.3717 54.9333 68.1822 59.1859 64.9401L65.3192 71.0735L71.256 65.1366L65.1227 59.0033C68.3648 54.7507 70.5543 49.656 71.2981 44.0981H79.9998V44.1121ZM17.0106 39.9016C17.0106 33.7402 19.4106 27.9438 23.7755 23.5789C28.1404 19.214 33.9368 16.814 40.0982 16.814C46.2596 16.814 52.0561 19.214 56.421 23.5789C60.7859 27.9438 63.1859 33.7402 63.1859 39.9016C63.1859 46.063 60.7718 51.8735 56.421 56.2244C52.0561 60.5893 46.2596 62.9893 40.0982 62.9893C33.9368 62.9893 28.1404 60.5893 23.7755 56.2244C19.4106 51.8735 17.0106 46.077 17.0106 39.9016Z" fill="#24396E"/>
<path d="M39.9999 59.9999C51.0456 59.9999 59.9999 51.0456 59.9999 39.9999C59.9999 28.9543 51.0456 20 39.9999 20C28.9543 20 20 28.9543 20 39.9999C20 51.0456 28.9543 59.9999 39.9999 59.9999Z" fill="white"/>
<g clip-path="url(#clip0)">
<path d="M46.796 32.5C46.796 32.7178 46.796 35.5906 46.796 35.8083C47.0202 35.8083 49.2122 35.8083 49.2122 35.8083L46.5149 45.4621C46.5149 45.4621 43.2135 32.6796 43.1679 32.5C42.9856 32.5 39.8551 32.5 39.6766 32.5C39.6272 32.6757 36.0561 45.4621 36.0561 45.4621L33.5715 35.8083C33.5715 35.8083 35.8623 35.8083 36.0865 35.8083C36.0865 35.5906 36.0865 32.7178 36.0865 32.5C35.8471 32.5 26.2431 32.5 26 32.5C26 32.7178 26 35.5906 26 35.8083C26.2241 35.8083 28.2338 35.8083 28.2338 35.8083C28.2338 35.8083 32.0899 50.6538 32.1393 50.8333C32.3254 50.8333 37.3706 50.8333 37.5529 50.8333C37.6023 50.6576 40.1363 41.3782 40.1363 41.3782C40.1363 41.3782 42.5487 50.6538 42.5943 50.8333C42.7804 50.8333 47.8256 50.8333 48.0079 50.8333C48.0573 50.6576 52.1147 35.8083 52.1147 35.8083C52.1147 35.8083 54.1092 35.8083 54.3295 35.8083C54.3295 35.5906 54.3295 32.7178 54.3295 32.5C54.0978 32.5 47.0316 32.5 46.796 32.5Z" fill="#9651F1"/>
</g>
<defs>
<clipPath id="clip0">
<rect x="26" y="32.5" width="28.3333" height="18.3333" fill="white"/>
</clipPath>
</defs>
</svg>
